<svg width="23" height="22" viewBox="0 0 23 22" fill="none" xmlns="http://www.w3.org/2000/svg">
<path fill-rule="evenodd" clip-rule="evenodd" d="M20.599 0.5C20.223 0.5 19.856 0.611 19.544 0.82L14.464 4.205C13.1893 5.05509 12.0236 6.05823 10.993 7.192C13.1099 8.1871 14.8129 9.89011 15.808 12.007C16.9418 10.9761 17.945 9.81006 18.795 8.535L22.181 3.456C22.3717 3.16961 22.4811 2.83687 22.4976 2.49321C22.5141 2.14956 22.437 1.80787 22.2747 1.50453C22.1123 1.20119 21.8708 0.947563 21.5757 0.770666C21.2806 0.59377 20.943 0.500226 20.599 0.5ZM12.299 14.525C12.9545 14.1609 13.5877 13.7579 14.195 13.318C13.7914 12.2971 13.1826 11.3699 12.4064 10.5936C11.6301 9.81737 10.7029 9.20861 9.682 8.805C9.24214 9.41197 8.83909 10.0448 8.475 10.7L8.19699 11.2C9.05314 11.4463 9.83269 11.9061 10.4625 12.5361C11.0924 13.1661 11.5519 13.9458 11.798 14.802L12.3 14.524L12.299 14.525ZM6.75 12.5C5.75543 12.5 4.80161 12.8951 4.09834 13.5983C3.39508 14.3016 3 15.2554 3 16.25C3.00005 16.4555 2.95787 16.6589 2.87607 16.8474C2.79427 17.036 2.67459 17.2057 2.52447 17.3461C2.37435 17.4864 2.19698 17.5944 2.00338 17.6634C1.80977 17.7324 1.60405 17.7608 1.399 17.747C1.26341 17.7379 1.12789 17.7658 1.00693 17.8277C0.885968 17.8896 0.784102 17.9833 0.712218 18.0986C0.640334 18.2139 0.601133 18.3466 0.598804 18.4825C0.596475 18.6183 0.631106 18.7523 0.698995 18.87C1.27589 19.8722 2.16751 20.6558 3.23543 21.0994C4.30335 21.5429 5.48783 21.6214 6.60495 21.3227C7.72206 21.0241 8.70933 20.3649 9.41346 19.4477C10.1176 18.5304 10.4992 17.4064 10.499 16.25C10.499 15.7575 10.402 15.2699 10.2135 14.8149C10.0251 14.36 9.74887 13.9466 9.40065 13.5983C9.05243 13.2501 8.63903 12.9739 8.18406 12.7855C7.72909 12.597 7.24145 12.5 6.749 12.5H6.75Z" fill="#7E3AF2"/>
</svg>
