<svg width="19" height="22" viewBox="0 0 19 22" fill="none" xmlns="http://www.w3.org/2000/svg">
<path fill-rule="evenodd" clip-rule="evenodd" d="M17.952 0.650996C18.0447 0.720964 18.1198 0.811483 18.1715 0.915427C18.2232 1.01937 18.2501 1.1339 18.25 1.25V15.303C18.2499 15.9548 18.0374 16.5889 17.6448 17.1093C17.2522 17.6296 16.7008 18.008 16.074 18.187L14.754 18.564C14.4302 18.6612 14.0903 18.6931 13.754 18.6579C13.4178 18.6226 13.0918 18.5209 12.7952 18.3587C12.4986 18.1965 12.2371 17.977 12.026 17.7129C11.8149 17.4488 11.6583 17.1454 11.5654 16.8203C11.4725 16.4952 11.4451 16.1549 11.4847 15.8192C11.5244 15.4834 11.6304 15.1589 11.7965 14.8644C11.9626 14.5699 12.1856 14.3114 12.4525 14.1038C12.7193 13.8961 13.0247 13.7436 13.351 13.655L15.662 12.995C15.9754 12.9055 16.2511 12.7163 16.4474 12.4561C16.6437 12.196 16.75 11.8789 16.75 11.553V5.994L7.75002 8.566V18.303C7.74989 18.9548 7.53744 19.5889 7.14483 20.1093C6.75222 20.6296 6.20081 21.008 5.57402 21.187L4.25402 21.564C3.92979 21.6625 3.58918 21.6955 3.25207 21.661C2.91495 21.6265 2.58808 21.5253 2.2905 21.3632C1.99291 21.2011 1.73058 20.9814 1.5188 20.7168C1.30701 20.4523 1.15002 20.1482 1.05696 19.8224C0.963895 19.4965 0.936636 19.1554 0.976767 18.8189C1.0169 18.4824 1.12362 18.1573 1.2907 17.8625C1.45779 17.5677 1.68189 17.3091 1.94995 17.1018C2.21801 16.8944 2.52466 16.7426 2.85202 16.655L5.16202 15.995C5.47541 15.9055 5.75112 15.7163 5.94743 15.4561C6.14373 15.196 6.24996 14.8789 6.25002 14.553V8.017V4.25C6.25006 4.08703 6.30317 3.92851 6.40132 3.79843C6.49947 3.66834 6.63733 3.57376 6.79402 3.529L17.294 0.528996C17.4057 0.497001 17.5232 0.491367 17.6374 0.512538C17.7516 0.533709 17.8593 0.581106 17.952 0.650996Z" fill="#7E3AF2"/>
</svg>
